<?xml version="1.0" encoding="utf-8"?>
<!-- Generator: Adobe Illustrator 21.0.0, SVG Export Plug-In . SVG Version: 6.00 Build 0)  -->
<svg version="1.1" id="Capa_1" xmlns="http://www.w3.org/2000/svg" xmlns:xlink="http://www.w3.org/1999/xlink" x="0px" y="0px"
	 viewBox="0 0 86.3 63.2" style="enable-background:new 0 0 86.3 63.2;" xml:space="preserve">
<style type="text/css">
	.st0{fill:#006FCF;}
	.st1{fill:#FFFFFF;}
</style>
<path class="st0" d="M77.8,63.2H8.5c-4.7,0-8.5-3.8-8.5-8.5v-46C0,4,3.8,0.2,8.5,0.2h69.3c4.7,0,8.5,3.8,8.5,8.5v46
	C86.3,59.4,82.5,63.2,77.8,63.2z"/>
<path class="st1" d="M75.7,28.4h6.5V13.2h-7.1v2.1l-1.3-2.1h-6.2v2.7l-1.2-2.7H55.2c-0.4,0-0.8,0.2-1.2,0.2s-0.6,0.2-1,0.4
	s-0.6,0.2-1,0.4v-1H19.6l-1,2.5l-1-2.5H10v2.7l-1.2-2.7H2.7L0,19.8v8.6h4.4l0.8-2.1h1.5l0.8,2.1h33.8v-1.9l1.3,1.9h9.4v-1.2
	c0.2,0.2,0.6,0.2,0.8,0.4c0.2,0.2,0.6,0.2,0.8,0.4c0.4,0.2,0.8,0.2,1.2,0.2h6.9l0.8-2.1H64l0.8,2.1h9.4v-1.9
	C74.2,26.3,75.7,28.4,75.7,28.4z M86.3,47.6V33.4H33.4l-1.3,1.9l-1.3-1.9H15.4v15.2h15.4l1.3-1.9l1.3,1.9h9.6v-3.3h-0.4
	c1.3,0,2.5-0.2,3.5-0.6v4H53v-1.9l1.3,1.9H83C84.2,48.4,85.3,48.2,86.3,47.6z"/>
<path class="st0" d="M83,44h-5.2v2.1h5c2.1,0,3.5-1.3,3.5-3.3c0-1.9-1.2-2.9-3.1-2.9h-2.3c-0.6,0-1-0.4-1-1s0.4-1,1-1h4.4l1-2.1
	h-5.2c-2.1,0-3.5,1.3-3.5,3.1c0,1.9,1.2,2.9,3.1,2.9H83c0.6,0,1,0.4,1,1C84.2,43.6,83.8,44,83,44z M73.6,44h-5.2v2.1h5
	c2.1,0,3.5-1.3,3.5-3.3c0-1.9-1.2-2.9-3.1-2.9h-2.3c-0.6,0-1-0.4-1-1s0.4-1,1-1h4.4l1-2.1h-5.2c-2.1,0-3.5,1.3-3.5,3.1
	c0,1.9,1.2,2.9,3.1,2.9h2.3c0.6,0,1,0.4,1,1C74.8,43.6,74.2,44,73.6,44z M66.9,37.8v-2.1h-8.1v10.2h8.1v-2.1h-5.8v-2.1h5.6v-2.1
	h-5.6v-1.9h5.8C66.9,37.6,66.9,37.8,66.9,37.8z M53.8,37.8c1,0,1.3,0.6,1.3,1.2s-0.4,1.2-1.3,1.2h-2.9v-2.5
	C50.9,37.6,53.8,37.8,53.8,37.8z M50.9,42.3h1.2l3.1,3.7H58l-3.5-3.8c1.7-0.4,2.7-1.5,2.7-3.1c0-1.9-1.3-3.3-3.5-3.3h-5.4v10.2h2.3
	C50.7,45.9,50.9,42.3,50.9,42.3z M44.8,39.2c0,0.8-0.4,1.3-1.3,1.3h-3.1v-2.7h2.9C44.2,37.8,44.8,38.4,44.8,39.2z M38.1,35.7v10.2
	h2.3v-3.5h3.1c2.1,0,3.7-1.3,3.7-3.5c0-1.9-1.3-3.5-3.5-3.5C43.6,35.5,38.1,35.7,38.1,35.7z M34.6,45.9h2.9l-4-5.2l4-5h-2.9L32.1,39
	l-2.5-3.3h-2.9l4,5l-4,5h2.9l2.5-3.3C32.1,42.4,34.6,45.9,34.6,45.9z M25.9,37.8v-2.1h-8.1v10.2h8.1v-2.1h-5.8v-2.1h5.6v-2.1h-5.6
	v-1.9h5.8V37.8z M72.7,19.8l4,6.2h2.9V15.7h-2.3v6.7l-0.6-1L73,15.7H70v10.2h2.3V19C72.3,19,72.7,19.8,72.7,19.8z M62.7,19.6
	l0.8-2.1l0.8,2.1l1,2.3h-3.5C61.7,21.9,62.7,19.6,62.7,19.6z M66.7,25.9h2.5l-4.4-10.2h-3.1l-4.4,10.2h2.5l1-2.1h5
	C65.7,23.8,66.7,25.9,66.7,25.9z M55.9,25.9l1-2.1h-0.6c-1.7,0-2.7-1.2-2.7-2.9v-0.2c0-1.7,1-2.9,2.7-2.9h2.5v-2.1h-2.7
	c-3.1,0-4.8,2.1-4.8,5v0.2C51.3,24,53,25.9,55.9,25.9z M47.3,25.9h2.3v-10h-2.3V25.9z M42.3,17.8c1,0,1.3,0.6,1.3,1.2
	c0,0.6-0.4,1.2-1.3,1.2h-2.9v-2.5C39.4,17.6,42.3,17.8,42.3,17.8z M39.4,22.3h1.2l3.1,3.7h2.9l-3.5-3.8c1.7-0.4,2.7-1.5,2.7-3.1
	c0-1.9-1.3-3.3-3.5-3.3h-5.4v10.2h2.3C39.2,25.9,39.4,22.3,39.4,22.3z M35.2,17.8v-2.1h-8.1v10.2h8.1v-2.1h-5.8v-2.1H35v-2.1h-5.6
	v-1.9h5.8V17.8z M17.7,25.9h2.1l2.9-8.3v8.3H25V15.7h-3.8l-2.3,6.9l-2.3-6.9h-3.8v10.2H15v-8.3C15,17.6,17.7,25.9,17.7,25.9z
	 M5.2,19.6L6,17.5l0.8,2.1l1,2.3H4.2C4.2,21.9,5.2,19.6,5.2,19.6z M9.2,25.9h2.5L7.3,15.7H4.4L0,25.9h2.5l1-2.1h5
	C8.5,23.8,9.2,25.9,9.2,25.9z"/>
</svg>
