<?xml version="1.0" encoding="utf-8"?>
<!-- Generator: Adobe Illustrator 21.0.0, SVG Export Plug-In . SVG Version: 6.00 Build 0)  -->
<svg version="1.1" id="Capa_1" xmlns="http://www.w3.org/2000/svg" xmlns:xlink="http://www.w3.org/1999/xlink" x="0px" y="0px"
	 viewBox="0 0 86.3 63.2" style="enable-background:new 0 0 86.3 63.2;" xml:space="preserve">
<style type="text/css">
	.st0{fill:#F2F4F5;}
	.st1{fill:#C4C4C4;}
	.st2{fill:#191E71;}
</style>
<g>
	<path class="st0" d="M8.5,62.3c-4.3,0-7.8-3.5-7.8-7.8v-46c0-4.3,3.5-7.8,7.8-7.8h69.3c4.3,0,7.8,3.5,7.8,7.8v46
		c0,4.3-3.5,7.8-7.8,7.8H8.5z"/>
	<path class="st1" d="M77.8,1.6c3.9,0,7,3.1,7,7v46c0,3.9-3.1,7-7,7H8.5c-3.9,0-7-3.1-7-7v-46c0-3.9,3.1-7,7-7H77.8 M77.8,0.1H8.5
		C3.8,0.1,0,3.9,0,8.6v46c0,4.7,3.8,8.5,8.5,8.5h69.3c4.7,0,8.5-3.8,8.5-8.5v-46C86.3,3.9,82.5,0.1,77.8,0.1L77.8,0.1z"/>
</g>
<g>
	<path class="st2" d="M36.1,21.1L32.5,42h5.8l3.6-20.9H36.1z"/>
	<path class="st2" d="M16.8,21c1.2,0,2.2,0.4,2.5,1.7l1.9,9.2c0-0.1,0-0.1-0.1-0.2c0.2,0.5,0.3,1,0.3,1.5l0.6,2.2l5.6-14.3h6.1
		l-9,20.9h-6.1l-6.3-19.1l0,0c-1.4-0.6-2.8-1.1-4.5-1.5L7.9,21H16.8z"/>
	<path class="st2" d="M53.5,25.2c1.9,0,3.2,0.4,4.3,0.8l0.5,0.2l0.8-4.5c-1.1-0.4-2.9-0.9-5.1-0.9c-5.7,0-9.7,2.8-9.7,6.9
		c0,3,2.8,4.7,5,5.7s3,1.7,3,2.6c0,1.4-1.8,2-3.4,2c-2.3,0-3.5-0.3-5.4-1.1l-0.7-0.3L42,41.3c1.3,0.6,3.8,1.1,6.4,1.1
		c6,0,9.9-2.8,10-7.2c0-2.4-1.5-4.2-4.8-5.7c-2-1-3.2-1.6-3.2-2.6C50.2,26.1,51.2,25.2,53.5,25.2z"/>
	<path class="st2" d="M73.8,21.2h-4.4c-1.4,0-2.4,0.4-3,1.7l-8.5,19.2h6c0,0,1-2.6,1.2-3.1c0.7,0,6.5,0,7.3,0
		c0.2,0.7,0.7,3.1,0.7,3.1h5.3L73.8,21.2z M66.7,34.7c0.5-1.2,2.3-5.8,2.3-5.8c0,0.1,0.5-1.2,0.8-2l0.4,1.8c0,0,1.1,5,1.3,6H66.7z"
		/>
</g>
</svg>
