<?xml version="1.0" encoding="utf-8"?>
<!-- Generator: Adobe Illustrator 21.0.0, SVG Export Plug-In . SVG Version: 6.00 Build 0)  -->
<svg version="1.1" id="Capa_1" xmlns="http://www.w3.org/2000/svg" xmlns:xlink="http://www.w3.org/1999/xlink" x="0px" y="0px"
	 viewBox="0 0 86.3 63.2" style="enable-background:new 0 0 86.3 63.2;" xml:space="preserve">
<style type="text/css">
	.st0{fill:#F2F4F5;}
	.st1{fill:#C4C4C4;}
	.st2{clip-path:url(#SVGID_2_);}
	.st3{fill:#231F20;}
	.st4{fill:#F79410;}
	.st5{fill:#FF5F00;}
	.st6{fill:#EB001B;}
	.st7{fill:#F79E1B;}
</style>
<g>
	<path class="st0" d="M8.5,62.3c-4.3,0-7.8-3.5-7.8-7.8v-46c0-4.3,3.5-7.8,7.8-7.8h69.3c4.3,0,7.8,3.5,7.8,7.8v46
		c0,4.3-3.5,7.8-7.8,7.8H8.5z"/>
	<path class="st1" d="M77.8,1.6c3.9,0,7,3.1,7,7v46c0,3.9-3.1,7-7,7H8.5c-3.9,0-7-3.1-7-7v-46c0-3.9,3.1-7,7-7H77.8 M77.8,0.1H8.5
		C3.8,0.1,0,3.9,0,8.6v46c0,4.7,3.8,8.5,8.5,8.5h69.3c4.7,0,8.5-3.8,8.5-8.5v-46C86.3,3.9,82.5,0.1,77.8,0.1L77.8,0.1z"/>
</g>
<g>
	<g>
		<g>
			<g>
				<g>
					<g>
						<defs>
							<rect id="SVGID_1_" x="15.8" y="9.7" width="56.7" height="43.6"/>
						</defs>
						<clipPath id="SVGID_2_">
							<use xlink:href="#SVGID_1_"  style="overflow:visible;"/>
						</clipPath>
						<g class="st2">
							<path class="st3" d="M71.4,52.8L71.4,52.8L71.4,52.8l0.2,0.1c0,0,0,0,0-0.1c0,0,0,0,0-0.1C71.6,52.7,71.6,52.7,71.4,52.8
								L71.4,52.8L71.4,52.8z M71.6,52.7c0.1,0,0.1,0,0.2,0l0.1,0.1v0.1c0,0-0.1,0-0.1,0.1l0.2,0.2h-0.1L71.7,53h-0.1v0.2h-0.1
								L71.6,52.7C71.5,52.7,71.6,52.7,71.6,52.7z M71.5,53.2c0.1,0,0.1,0,0.2,0s0.1-0.1,0.1-0.1l0.1-0.1c0-0.1,0-0.1,0-0.2
								s0-0.1,0-0.2c0-0.1-0.1-0.1-0.1-0.1h-0.1c-0.1,0-0.1,0-0.2,0s-0.1,0-0.2,0s-0.1,0.1-0.1,0.1l-0.1,0.1c0,0.1,0,0.1,0,0.2
								c0,0.1,0,0.1,0,0.2c0,0.1,0.1,0.1,0.1,0.1l0.1,0.1C71.4,53.2,71.5,53.2,71.5,53.2z M71.5,52.4c0.1,0,0.2,0,0.2,0
								c0.1,0,0.1,0.1,0.2,0.1c0.1,0.1,0.1,0.1,0.1,0.2c0,0.1,0,0.1,0,0.2c0,0.1,0,0.2,0,0.2c0,0.1-0.1,0.1-0.1,0.2
								c-0.1,0.1-0.1,0.1-0.2,0.1s-0.1,0-0.2,0s-0.2,0-0.2,0c-0.1,0-0.1-0.1-0.2-0.1s-0.1,0-0.1-0.1s0-0.1,0-0.2c0-0.1,0-0.2,0-0.2
								c0-0.1,0.1-0.1,0.1-0.2c0.1-0.1,0.1-0.1,0.2-0.1C71.4,52.4,71.4,52.4,71.5,52.4z M28,50.8c0-0.8,0.6-1.5,1.4-1.5
								s1.4,0.7,1.4,1.5s-0.6,1.5-1.4,1.5C28.5,52.3,28,51.6,28,50.8z M31.8,50.8v-2.2h-0.9v0.6c-0.3-0.4-0.8-0.7-1.5-0.7
								c-1.3,0-2.3,0.9-2.3,2.4c0,1.4,1,2.4,2.3,2.4c0.7,0,1.1-0.3,1.5-0.7v0.6h0.9V50.8z M66,50.8c0-0.8,0.6-1.5,1.4-1.5
								s1.4,0.7,1.4,1.5s-0.6,1.5-1.4,1.5C66.5,52.3,66,51.6,66,50.8z M69.8,50.8v-4.1h-1v2.4c-0.3-0.4-0.8-0.7-1.5-0.7
								c-1.3,0-2.3,0.9-2.3,2.4c0,1.4,1,2.4,2.3,2.4c0.7,0,1.1-0.3,1.5-0.7v0.6h1V50.8z M44.4,49.3c0.7,0,1,0.4,1.2,1.1h-2.4
								C43.3,49.8,43.6,49.3,44.4,49.3z M44.4,48.4c-1.4,0-2.3,0.9-2.3,2.4s0.9,2.4,2.3,2.4c0.7,0,1.4-0.2,2-0.7l-0.5-0.7
								c-0.4,0.3-0.9,0.5-1.4,0.5c-0.7,0-1.2-0.3-1.4-1.1h3.5c0-0.2,0-0.3,0-0.4C46.5,49.3,45.7,48.4,44.4,48.4z M56.7,50.8
								c0-0.8,0.6-1.5,1.4-1.5s1.4,0.7,1.4,1.5s-0.6,1.5-1.4,1.5C57.1,52.3,56.7,51.6,56.7,50.8z M60.3,50.8v-2.2h-0.9v0.6
								c-0.3-0.4-0.8-0.7-1.5-0.7c-1.3,0-2.3,0.9-2.3,2.4c0,1.4,1,2.4,2.3,2.4c0.7,0,1.1-0.3,1.5-0.7v0.6h0.9V50.8z M50.9,50.8
								c0,1.4,0.9,2.4,2.5,2.4c0.7,0,1.1-0.2,1.7-0.6l-0.5-0.8c-0.4,0.3-0.8,0.4-1.2,0.4c-0.8,0-1.4-0.6-1.4-1.5s0.6-1.5,1.4-1.5
								c0.4,0,0.8,0.2,1.2,0.4l0.5-0.8c-0.5-0.4-0.9-0.6-1.7-0.6C51.8,48.4,50.9,49.4,50.9,50.8z M63.9,48.4c-0.6,0-0.9,0.3-1.2,0.7
								v-0.6h-0.9v4.6h1v-2.6c0-0.7,0.3-1.2,0.9-1.2c0.3,0,0.4,0,0.7,0.1l0.3-0.9C64.4,48.5,64.2,48.4,63.9,48.4z M36.8,48.8
								c-0.5-0.3-1.1-0.5-1.9-0.5c-1.2,0-2,0.6-2,1.5c0,0.7,0.6,1.2,1.6,1.4l0.5,0.1c0.6,0.1,0.8,0.3,0.8,0.5c0,0.3-0.4,0.6-1,0.6
								c-0.7,0-1.2-0.3-1.5-0.5l-0.5,0.8c0.6,0.4,1.3,0.6,2.1,0.6c1.4,0,2.1-0.7,2.1-1.5s-0.7-1.2-1.6-1.4l-0.5-0.1
								c-0.4-0.1-0.8-0.2-0.8-0.5s0.3-0.6,0.9-0.6s1.1,0.3,1.5,0.4L36.8,48.8z M49.9,48.4c-0.6,0-0.9,0.3-1.2,0.7v-0.6h-0.9v4.6h0.9
								v-2.6c0-0.7,0.3-1.2,0.9-1.2c0.3,0,0.4,0,0.7,0.1l0.3-0.9C50.4,48.5,50,48.4,49.9,48.4z M41.2,48.6h-1.6v-1.5h-1v1.4h-0.9
								v0.9h0.9v2.1c0,1,0.4,1.7,1.6,1.7c0.4,0,0.9-0.2,1.3-0.3L41.2,52c-0.3,0.2-0.7,0.3-0.9,0.3c-0.5,0-0.7-0.3-0.7-0.8v-2.1h1.6
								C41.2,49.4,41.2,48.6,41.2,48.6z M26,53.1v-2.9c0-1-0.7-1.8-1.9-1.9c-0.6,0-1.2,0.2-1.6,0.8c-0.3-0.5-0.8-0.8-1.5-0.8
								c-0.5,0-0.9,0.2-1.4,0.7v-0.6h-0.9V53h1v-2.5c0-0.8,0.5-1.2,1.1-1.2c0.7,0,0.9,0.4,0.9,1.2v2.6h1v-2.5c0-0.8,0.5-1.2,1.1-1.2
								c0.7,0,1,0.4,1,1.2v2.6L26,53.1L26,53.1z"/>
							<path class="st4" d="M72,37.8v-0.7h-0.2l-0.2,0.5l-0.3-0.5h-0.2v0.7h0.2v-0.5l0.2,0.4h0.2l0.2-0.4L72,37.8L72,37.8z
								 M70.9,37.8v-0.6h0.3v-0.1h-0.6v0.1h0.3L70.9,37.8L70.9,37.8z"/>
							<path class="st5" d="M51.8,40.7H36.5V13.4h15.3V40.7z"/>
							<path class="st6" d="M37.4,27.1c0-5.5,2.6-10.5,6.7-13.6c-3-2.3-6.7-3.7-10.9-3.7c-9.7,0-17.5,7.8-17.5,17.3
								s7.9,17.3,17.5,17.3c4,0,7.9-1.4,10.9-3.7C40.1,37.5,37.4,32.5,37.4,27.1z"/>
							<path class="st7" d="M72.5,27.1c0,9.6-7.9,17.3-17.5,17.3c-4,0-7.9-1.4-10.9-3.7c4-3.2,6.7-8.1,6.7-13.6s-2.6-10.5-6.7-13.6
								c3-2.3,6.7-3.7,10.9-3.7C64.7,9.7,72.5,17.4,72.5,27.1z"/>
						</g>
					</g>
				</g>
			</g>
		</g>
	</g>
</g>
</svg>
